<?xml version="1.0" encoding="UTF-8" standalone="no"?>
<svg width="28px" height="18px" viewBox="0 0 28 18" version="1.1" xmlns="http://www.w3.org/2000/svg" xmlns:xlink="http://www.w3.org/1999/xlink">
    <!-- Generator: Sketch 46.2 (44496) - http://www.bohemiancoding.com/sketch -->
    <title>Artboard</title>
    <desc>Created with Sketch.</desc>
    <defs></defs>
    <g id="Page-1" stroke="none" stroke-width="1" fill="none" fill-rule="evenodd">
        <g id="Artboard" fill-rule="nonzero" fill="#24253A">
            <g id="Group-Copy-4" transform="translate(14.000000, 9.000000) scale(-1, 1) rotate(-180.000000) translate(-14.000000, -9.000000) ">
                <path d="M22.9409271,10.0833333 L1.3719216,10.0833333 C0.681565658,10.0833333 0.121921595,9.52368927 0.121921595,8.83333333 C0.121921595,8.1429774 0.681565658,7.58333333 1.3719216,7.58333333 L22.8155664,7.58333333 L18.1161165,2.88388348 C17.6279612,2.39572811 17.6279612,1.60427189 18.1161165,1.11611652 C18.6042719,0.627961159 19.3957281,0.627961159 19.8838835,1.11611652 L26.8838835,8.11611652 C27.1461492,8.37838225 27.2675104,8.72819483 27.247967,9.07148365 C27.2685505,9.45377308 27.1328318,9.8429077 26.8408109,10.1349286 L20.1349286,16.8408109 C19.5893432,17.3863964 18.7047745,17.3863964 18.1591891,16.8408109 C17.6136036,16.2952255 17.6136036,15.4106568 18.1591891,14.8650714 L22.9409271,10.0833333 Z" id="Combined-Shape"></path>
            </g>
        </g>
    </g>
</svg>